<?xml version="1.0" standalone="no"?><!DOCTYPE svg PUBLIC "-//W3C//DTD SVG 1.1//EN" "http://www.w3.org/Graphics/SVG/1.1/DTD/svg11.dtd"><svg t="1537924970044" class="icon" style="" viewBox="0 0 1024 1024" version="1.1" xmlns="http://www.w3.org/2000/svg" p-id="1415" xmlns:xlink="http://www.w3.org/1999/xlink" width="128" height="128"><defs><style type="text/css"></style></defs><path d="M682.666667 962.773333H237.44a86.826667 86.826667 0 0 1-85.333333-88.96V168.533333a86.826667 86.826667 0 0 1 85.333333-88.96h548.053333a86.826667 86.826667 0 0 1 85.333334 88.96V640h-21.333334V168.533333a65.493333 65.493333 0 0 0-64-67.626666H237.44a65.493333 65.493333 0 0 0-64 67.626666V874.666667a65.493333 65.493333 0 0 0 64 67.626666H682.666667z"  p-id="1416"></path><path d="M225.706667 244.48h557.44v21.333333H225.706667zM225.706667 436.053333h557.44v21.333334H225.706667zM225.706667 627.84h331.946666v21.333333H225.706667zM501.76 808.96h395.093333v21.333333H501.76z"  p-id="1417"></path><path d="M779.093333 960l-15.146666-15.146667 125.013333-124.8-125.013333-125.013333 15.146666-15.146667 132.48 132.48a10.666667 10.666667 0 0 1 0 15.146667z"  p-id="1418"></path></svg>