<?xml version="1.0" standalone="no"?><!DOCTYPE svg PUBLIC "-//W3C//DTD SVG 1.1//EN" "http://www.w3.org/Graphics/SVG/1.1/DTD/svg11.dtd"><svg t="1537926075757" class="icon" style="" viewBox="0 0 1024 1024" version="1.1" xmlns="http://www.w3.org/2000/svg" p-id="1923" xmlns:xlink="http://www.w3.org/1999/xlink" width="128" height="128"><path d="M500 171.1h24v21.1l21-0.1v24.1h-21v21h-24v-21h-21v-24h21v-21.1z m165.8 374.5c-6.1-1.6-12.1-3.1-18-4.6-23.4-5.7-44.9-10.2-57.1-13.7-0.6 4.6-1.6 9.3-3 13.9-11.4 37.5-48.6 74.6-75.7 99.4-27-24.7-64-61.6-75.5-98.9-1.5-4.8-2.6-9.5-3.2-14.3-12.8 3.6-35.6 8.4-60.3 14.5-4.9 1.2-9.9 2.5-14.9 3.8l-12.3 63 52.9-0.1-24.6 43c43.3 24.3 88.6 44.2 137.7 58.8 49.2-14.6 94.5-34.4 137.7-58.8l-24.5-43 52.9 0.1-12.1-63.1z"  p-id="1924"></path><path d="M332.3 553c-31.4 9.8-64.3 21.9-68.9 36.7-22.3 72-37.4 234.2-40 306.2h577c-2.6-72-17.7-234.2-40-306.2-4.6-14.8-37.5-26.9-68.8-36.7l9.9 51.1c2.5 13-6 25.6-19 28.1-2.1 0.4-4.2 0.5-6.2 0.4h-9.9l4.1 7.1c6.5 11.5 2.5 26.1-9 32.7l-0.1 0.1c-22.4 12.6-45.3 24-68.9 34.2-21.9 9.4-44.7 17.8-68.6 25.1V830h-24v-98.2c-23.8-7.3-46.6-15.7-68.6-25.1-23.6-10.1-46.5-21.6-68.9-34.2-11.5-6.5-15.6-21.1-9.2-32.7 0.2-0.4 0.5-0.8 0.8-1.3l3.4-6h-11.6c-13.2 0-23.9-10.7-23.9-23.9 0-1.5 0.1-3 0.4-4.5l10-51.1z m81-357.1l-3.4-39.8c-0.5-6.2 3.8-11.8 10-12.8l89.8-15c1.4-0.2 2.8-0.3 4.2 0l89.4 14.9c6.4 0.7 11.2 6.4 10.6 12.9l-3.3 39.4c4.8 4.1 9.8 8.7 15 13.8 65.4 64.3 92.4 196.7 47 283.3-20.7 1.8-77.1 0-109.6-4.3 21.6-22.3 48-68.4 47.1-134.2 0-0.9 0-9.3-0.1-10.2-34.7-6.9-64-29.8-73.3-69.5-11.1 43.2-74.1 89.4-122.7 91.8 2 59.4 26.7 101.2 47 122.1-28.5 4.3-93.1 6.5-109.6 4.3-45.4-86.6-18.4-219 46.9-283.2 5-5 10-9.4 15-13.5z m28.7 53.3h140.1l7.1-84-77.2-12.9-77.2 12.9 7.2 84z m154.1 499.5h90.1v24h-90.1v-24z"  p-id="1925"></path></svg>